# xmcd CD database file
#
# Track frame offsets:
#	150
#	2124
#	16223
#	33977
#	48090
#	64455
#	83173
#	102737
#	119048
#	133726
#	149874
#	167952
#	182051
#	199806
#	213918
#	230284
#	249002
#	268566
#	284877
#	299555
#	315702
#
# Disc length: 4450 seconds
#
# Revision: 0
# Processed by: cddbd v1.5.2PL0 Copyright (c) Steve Scherf et al.
# Submitted via: CDex 2.21
#
DISCID=4a116015
DTITLE=Guest Spot - 21st Century Hits
DYEAR=2000
DGENRE=Jazz
TTITLE0=Tuning Notes
TTITLE1=All About You
TTITLE2=Beautiful Day
TTITLE3=Don't Know Why
TTITLE4=Everytime
TTITLE5=I Don't Feel Like Dancin'
TTITLE6=1973
TTITLE7=Other Side Of The World
TTITLE8=Patience
TTITLE9=Put Your Records On
TTITLE10=You Raise Me Up
TTITLE11=All About You
TTITLE12=Beautiful Day
TTITLE13=Don't Know Why
TTITLE14=Everytime
TTITLE15=I Don't Feel Like Dancin'
TTITLE16=1973
TTITLE17=Other Side Of The World
TTITLE18=Patience
TTITLE19=Put Your Records On
TTITLE20=You Raise Me Up
EXTD=YEAR: 2000
EXTT0=
EXTT1=
EXTT2=
EXTT3=
EXTT4=
EXTT5=
EXTT6=
EXTT7=
EXTT8=
EXTT9=
EXTT10=
EXTT11=
EXTT12=
EXTT13=
EXTT14=
EXTT15=
EXTT16=
EXTT17=
EXTT18=
EXTT19=
EXTT20=
PLAYORDER=
